<svg width="323" height="201" viewBox="0 0 323 201" fill="none" xmlns="http://www.w3.org/2000/svg">
<g opacity="0.5">
<path d="M161.875 106.211C144.497 106.211 130.357 120.351 130.357 137.73C130.357 144.8 132.726 151.312 136.673 156.576C139.271 149.459 144.777 143.74 151.768 140.887C150.081 138.714 149.034 136.019 149.034 133.06C149.034 125.979 154.794 120.219 161.875 120.219C168.957 120.219 174.716 125.979 174.716 133.06C174.716 136.019 173.67 138.714 171.983 140.887C178.974 143.74 184.48 149.459 187.078 156.576C191.025 151.312 193.394 144.8 193.394 137.73C193.394 120.351 179.254 106.211 161.875 106.211Z" fill="#F6F4ED"/>
<path d="M161.875 138.897C165.099 138.897 167.712 136.284 167.712 133.06C167.712 129.837 165.099 127.224 161.875 127.224C158.652 127.224 156.039 129.837 156.039 133.06C156.039 136.284 158.652 138.897 161.875 138.897Z" fill="#F6F4ED"/>
<path d="M161.875 145.901C152.065 145.901 143.951 153.071 142.364 162.436C147.737 166.688 154.507 169.249 161.875 169.249C169.242 169.249 176.012 166.688 181.385 162.436C179.798 153.071 171.685 145.901 161.875 145.901Z" fill="#F6F4ED"/>
<path d="M148.058 62.6357L144.761 73.0644C143.995 75.4857 144.839 78.0804 146.868 79.5213C148.797 80.8939 151.273 80.862 153.193 79.4438L161.875 72.9595L170.562 79.4438C172.438 80.8442 174.975 80.8781 176.882 79.5213C178.911 78.0804 179.755 75.4857 178.989 73.0689L175.692 62.6356L184.114 56.3474C186.088 54.8699 186.877 52.2707 186.084 49.8813C185.309 47.5557 183.275 46.0554 180.895 46.0554H170.457L167.092 35.4124C166.348 33.0732 164.255 31.5 161.875 31.5C159.494 31.5 157.401 33.0732 156.658 35.4171L153.293 46.0555H142.855C140.475 46.0555 138.441 47.5558 137.666 49.8814C136.872 52.2708 137.661 54.87 139.636 56.3475L148.058 62.6357Z" fill="#F6F4ED"/>
<path d="M230.457 85.4584C229.714 83.2286 227.762 81.7921 225.478 81.7921H216.481L213.581 72.6083C212.869 70.3648 210.859 68.8555 208.569 68.8555C206.28 68.8555 204.269 70.3648 203.563 72.6083L200.658 81.7922H191.661C189.376 81.7922 187.425 83.2286 186.681 85.4585C185.92 87.7384 186.677 90.2237 188.574 91.6418L195.833 97.0636L192.988 106.065C192.254 108.382 193.065 110.867 195.008 112.248C196.789 113.515 199.256 113.531 201.086 112.171L208.569 106.58L216.052 112.171C217.89 113.543 220.275 113.566 222.131 112.248C224.073 110.867 224.885 108.382 224.151 106.074L221.305 97.0635L228.569 91.6417C230.462 90.2236 231.219 87.7384 230.457 85.4584Z" fill="#F6F4ED"/>
<path d="M130.762 106.074L127.917 97.0636L135.181 91.6418C137.073 90.2236 137.83 87.7384 137.069 85.4584C136.325 83.2286 134.374 81.7921 132.089 81.7921H123.092L120.192 72.6083C119.481 70.3648 117.47 68.8555 115.181 68.8555C112.892 68.8555 110.881 70.3648 110.169 72.6083L107.269 81.7922H98.2722C95.9877 81.7922 94.036 83.2286 93.2927 85.4585C92.5312 87.7384 93.2881 90.2237 95.1851 91.6418L102.445 97.0636L99.5992 106.065C98.865 108.382 99.6767 110.867 101.619 112.248C103.39 113.508 105.876 113.53 107.698 112.171L115.181 106.58L122.664 112.171C124.501 113.543 126.886 113.566 128.742 112.248C130.685 110.867 131.496 108.382 130.762 106.074Z" fill="#F6F4ED"/>
</g>
</svg>
