<svg width="323" height="201" viewBox="0 0 323 201" fill="none" xmlns="http://www.w3.org/2000/svg">
<g opacity="0.5">
<path d="M125.347 67.6699C122.752 67.0651 117.352 61.5792 112.404 62.9119C107.456 64.2447 105.361 71.8586 101.555 72.8106C97.7491 73.7625 96.9876 72.049 99.08 69.0046C101.174 65.9582 93.3701 68.243 92.2277 66.339C91.0853 64.4351 89.7526 59.6771 92.2277 57.5828C94.7028 55.4884 87.0889 55.1076 88.0409 52.0632C88.9929 49.0169 93.9413 51.1112 93.9413 49.0169C93.9413 46.9225 88.8025 43.6877 89.9448 40.8318C91.0872 37.9759 93.5605 38.1663 95.8452 37.4047C98.1299 36.6431 99.0819 38.1663 101.174 37.4047C103.269 36.6431 103.946 28.6484 106.653 29.6004C109.359 30.5523 107.265 32.0755 108.979 33.216C110.692 34.3584 112.406 36.6431 112.406 37.974C112.406 39.3049 113.929 40.4491 115.071 37.7836C116.214 35.1181 115.452 32.2976 117.356 29.5201C119.26 26.7426 119.831 30.3601 120.593 30.3601C121.354 30.3601 125.922 31.8832 125.351 30.5505C124.78 29.2177 127.445 31.6929 126.683 29.5985C125.922 27.5042 125.246 25.2213 126.822 25.6021C128.397 25.9829 129.73 27.8868 129.73 26.9349C129.73 25.9829 128.397 23.8885 129.73 22.5577C131.063 21.2268 132.015 23.1288 133.345 22.5577C134.676 21.9865 135.249 20.6537 136.773 19.7017C138.296 18.7498 144.767 19.7017 145.719 18.1786C146.671 16.6554 150.096 15.3227 148.194 18.1786C146.292 21.0345 149.908 22.3654 151.05 22.3654C152.193 22.3654 156.379 24.8405 163.041 24.2693C169.703 23.6982 164.374 26.5541 163.993 27.3156C163.613 28.0772 161.328 28.6484 163.993 29.9812C166.659 31.3139 163.803 31.6947 164.565 33.0275C165.326 34.3602 167.611 35.693 167.801 36.6431C167.992 37.5951 169.134 41.0203 167.801 40.0702C166.468 39.1182 161.776 38.1663 161.457 38.9278C161.137 39.6894 156.76 43.4954 155.427 43.8762C154.095 44.257 152.762 41.5915 152.191 43.4954C151.62 45.3994 150.096 46.7321 150.858 47.4919C151.62 48.2534 154.285 49.3958 154.664 51.1075C155.045 52.821 155.235 54.9135 153.331 54.7231C151.427 54.5327 151.998 58.5291 152.95 59.8619C153.902 61.1946 161.136 70.8562 166.084 73.0682C171.032 75.2801 172.365 78.8957 172.936 82.5132C173.507 86.1289 181.883 95.6467 184.737 96.4083C187.593 97.1699 193.684 99.8354 196.347 98.693C199.013 97.5507 202.819 96.0275 203.009 98.1218C203.2 100.216 198.251 101.359 200.534 104.213C202.819 107.069 206.054 107.828 210.814 108.399C215.573 108.971 224.137 114.49 227.565 115.823C230.992 117.156 235.75 120.771 234.227 123.246C232.703 125.722 235.75 128.576 233.655 128.766C231.561 128.956 231.371 128.195 228.326 124.389C225.28 120.583 225.661 123.437 222.235 121.914C218.808 120.391 217.097 115.78 215.764 118.466C214.431 121.152 212.148 125.912 211.196 127.433C210.244 128.956 208.34 133.334 212.148 133.714C215.954 134.095 219.381 135.87 219.381 141.709C219.381 144.184 219.953 145.515 216.906 146.086C213.86 146.657 213.479 147.609 213.86 150.463C214.241 153.319 209.673 158.077 208.531 161.503C207.388 164.93 201.488 164.359 201.678 160.551C201.869 156.745 208.34 156.173 205.675 153.318C203.009 150.462 204.152 151.414 206.246 149.321C208.34 147.227 207.579 146.656 206.436 143.23C205.294 139.803 199.965 128.574 197.871 128.955C195.776 129.335 188.353 127.622 187.972 121.721C187.591 115.821 181.12 121.912 181.12 121.912C181.12 121.912 182.262 119.013 181.31 118.464C180.358 117.915 180.168 122.102 177.883 116.963C175.598 111.825 171.411 110.111 168.746 111.253C166.08 112.396 159.228 110.682 155.612 105.543C151.997 100.405 146.666 94.5043 144.192 94.5043C141.719 94.5043 138.292 92.2196 137.53 88.9848C136.769 85.7481 135.246 86.3192 133.153 86.3192C131.061 86.3192 135.248 83.2729 132.963 80.2285C130.678 77.1822 131.059 68.999 125.349 67.6662L125.347 67.6699Z" fill="#F6F4ED"/>
<path d="M128.485 89.1831C128.201 88.2759 129.984 88.4719 131.248 87.9997C132.511 87.5274 132.274 86.1835 132.59 87.2101C132.905 88.2367 131.879 88.709 132.59 89.4986C133.301 90.2881 132.59 90.8593 131.8 90.1407C131.011 89.4202 128.879 90.4468 128.485 89.1831Z" fill="#F6F4ED"/>
<path d="M110.095 120.911C111.831 119.569 113.332 121.701 114.515 118.938C115.699 116.175 117.593 116.254 117.83 115.386C118.067 114.518 119.962 113.57 120.515 115.386C121.067 117.202 122.409 114.992 122.883 116.965C123.357 118.938 124.067 119.253 124.382 120.911C124.698 122.569 127.46 125.884 125.881 127.463C124.302 129.042 124.145 130.384 125.013 132.514C125.881 134.644 125.803 133.382 125.329 136.619C124.854 139.855 125.25 140.408 124.854 142.222C124.461 144.038 127.933 149.562 122.881 148.221C117.83 146.879 116.488 145.3 116.488 147.195C116.488 149.089 118.067 151.615 115.936 152.561C113.804 153.508 111.99 153.272 111.2 151.378C110.411 149.483 107.885 147.352 108.675 144.038C109.464 140.723 108.516 137.567 109.701 138.672C110.885 139.777 110.648 139.936 110.569 138.672C110.491 137.408 110.806 136.068 109.149 136.777C107.491 137.488 107.885 133.778 109.07 133.384C110.254 132.99 110.097 129.753 108.992 129.357C107.887 128.964 108.677 128.727 108.439 127.306C108.202 125.886 107.413 125.57 106.466 125.174C105.52 124.781 105.046 125.648 105.44 123.123C105.834 120.597 105.834 119.571 106.151 117.835C106.466 116.099 108.598 115.546 107.967 116.808C107.336 118.072 106.209 118.036 106.92 119.22C107.631 120.403 107.967 121.781 109.151 121.544C110.334 121.307 110.097 120.913 110.097 120.913L110.095 120.911Z" fill="#F6F4ED"/>
<path d="M161.399 169.861C160.54 167.166 161.662 163.377 163.658 163.377C165.653 163.377 163.824 159.718 164.822 161.215C165.821 162.712 165.653 164.299 166.818 164.088C167.983 163.877 169.812 160.164 171.307 160.857C172.804 161.549 174.799 162.214 176.13 163.212C177.461 164.209 179.789 164.377 181.784 163.212C183.78 162.048 184.945 164.043 186.94 163.379C188.935 162.714 191.929 158.889 194.589 159.886C197.249 160.883 196.419 157.725 197.415 157.891C198.414 158.057 201.781 156.823 202.071 157.885C202.36 158.947 199.411 160.885 199.243 162.714C199.077 164.543 196.251 168.866 196.417 170.862C196.583 172.857 199.243 174.354 198.744 175.851C198.246 177.348 200.574 178.845 199.077 180.341C197.58 181.836 199.575 183.333 198.246 184.331C196.915 185.328 196.749 181.505 191.761 183.333C186.772 185.162 190.098 178.677 184.112 178.343C181.008 178.172 178.172 177.63 175.49 175.894C175.16 175.681 174.114 174.66 173.79 174.457C171.656 173.117 170.331 171.483 168.317 171.693C163.493 172.191 162.301 172.689 161.401 169.863L161.399 169.861Z" fill="#F6F4ED"/>
</g>
</svg>
