<svg width="323" height="201" viewBox="0 0 323 201" fill="none" xmlns="http://www.w3.org/2000/svg">
<g opacity="0.5">
<path d="M158.91 145.009C156.293 150.761 153.266 156.515 149.833 162.261C145.861 153.596 142.905 144.742 140.966 135.715C145.864 137.138 150.777 138.313 155.694 139.238C155.909 141.588 157.122 143.652 158.909 145.01L158.91 145.009Z" fill="#F6F4ED"/>
<path d="M135.081 128.971C133.243 116.879 133.11 104.508 134.678 92.0093C132.758 92.6324 130.915 93.272 129.149 93.92C115.66 98.8707 105.22 104.811 98.6497 109.076C98.7718 109.923 98.9107 110.764 99.0663 111.6C105.997 116.006 116.258 121.793 128.791 126.674C130.798 127.455 132.896 128.225 135.081 128.971H135.081Z" fill="#F6F4ED"/>
<path d="M165.714 79.1811C165.563 79.6232 165.448 80.0815 165.375 80.5541C156.905 81.5461 148.561 83.1756 140.398 85.4316C140.911 82.5839 141.513 79.7235 142.206 76.85C142.759 74.5561 143.357 72.3192 143.989 70.1456C144.07 70.1478 144.152 70.1491 144.233 70.1491C146.265 70.1491 148.124 69.4231 149.564 68.2188C154.659 71.244 160.123 74.87 165.714 79.1811H165.714Z" fill="#F6F4ED"/>
<path d="M223.836 83.5672C219.019 82.5369 214.22 81.6966 209.461 81.0517C200.094 79.7811 190.697 79.2409 181.476 79.4406C180.559 76.4346 177.952 74.1572 174.752 73.6967C173.879 68.0278 172.581 62.4152 170.858 56.8763C168.709 49.9647 165.886 43.1526 162.467 36.6299C162.445 36.5863 162.421 36.5436 162.398 36.5C191.842 36.6779 216.571 56.5833 223.836 83.5672Z" fill="#F6F4ED"/>
<path d="M226 99.9995C226 111.952 222.671 123.133 216.884 132.68C216.379 132.811 215.875 132.939 215.372 133.064C213.016 128.175 210.444 123.441 207.672 118.896C202.513 110.442 196.546 102.45 189.936 95.1421C187.02 91.919 183.966 88.8118 180.781 85.8263C181.077 85.3008 181.317 84.7401 181.492 84.1515C182.764 84.1222 184.048 84.1074 185.345 84.1074C197.496 84.1074 210.754 85.3994 224.968 88.5829C225.646 92.2861 226 96.1018 226 99.9991L226 99.9995Z" fill="#F6F4ED"/>
<path d="M164.711 130.307C164.456 130.284 164.197 130.272 163.936 130.272C160.767 130.272 158.014 132.039 156.624 134.634C150.699 133.535 145.13 132.127 139.973 130.552C137.753 117.542 137.617 104.181 139.577 90.5065C147.351 88.2601 156.198 86.3481 166.014 85.2148C167.019 87.4103 168.969 89.089 171.35 89.7396C171.499 103.067 169.274 116.647 164.711 130.306V130.307Z" fill="#F6F4ED"/>
<path d="M139.537 68.6993C138.867 70.9968 138.253 73.2964 137.697 75.5926C136.782 79.3669 136.021 83.1355 135.412 86.8945C132.69 87.74 129.989 88.6557 127.312 89.642C120.963 91.9822 114.734 94.7288 108.8 97.805C105.114 99.7166 101.534 101.758 98.1187 103.895C98.04 102.607 98 101.307 98 99.9991C98 81.7498 105.759 65.2991 118.182 53.7163C122.976 55.3506 129.127 57.7156 136.012 60.9937C135.976 61.3033 135.958 61.6177 135.958 61.9369C135.958 64.741 137.374 67.2177 139.537 68.6989V68.6993Z" fill="#F6F4ED"/>
<path d="M135.982 134.179C132.953 133.192 129.931 132.111 126.919 130.934C120.615 128.471 114.342 125.584 108.274 122.352C105.68 120.97 103.121 119.524 100.615 118.025C106.783 138.736 123.308 155.037 144.239 161.023C140.522 152.299 137.752 143.292 135.982 134.179H135.982Z" fill="#F6F4ED"/>
<path d="M212.804 138.623C201.106 153.749 182.7 163.5 162 163.5C159.563 163.5 157.16 163.365 154.794 163.102C154.898 162.925 155.002 162.749 155.105 162.572C158.183 157.3 160.956 151.963 163.365 146.677C163.554 146.69 163.744 146.696 163.936 146.696C167.489 146.696 170.52 144.475 171.693 141.355C172.984 141.454 174.276 141.535 175.565 141.6C177.879 141.713 180.195 141.77 182.511 141.77C189.839 141.77 197.16 141.199 204.352 140.063C207.15 139.621 209.946 139.091 212.736 138.473C212.759 138.523 212.782 138.573 212.804 138.623H212.804Z" fill="#F6F4ED"/>
<path d="M170.1 74.3583C169.505 74.6291 168.949 74.9679 168.441 75.3647C163.272 71.4042 157.835 67.7241 152.15 64.3409C152.385 63.5805 152.511 62.7738 152.511 61.937C152.511 59.2153 151.176 56.8027 149.121 55.3089C151.807 48.6171 154.585 42.9665 156.915 38.6481C157.14 38.2312 157.363 37.8231 157.584 37.4224C160.794 43.3633 163.972 50.434 166.45 58.4549C168.068 63.6951 169.284 68.9999 170.101 74.3583H170.1Z" fill="#F6F4ED"/>
<path d="M210.684 134.138C200.939 136.192 191.542 137.058 182.621 137.058C179.001 137.058 175.459 136.915 172.005 136.651C171.587 134.831 170.559 133.241 169.146 132.103C169.658 130.59 170.14 129.08 170.593 127.575C172.214 122.19 173.493 116.744 174.396 111.386C175.624 104.094 176.185 96.8359 176.083 89.6444C176.534 89.501 176.968 89.32 177.382 89.1055C189.464 100.433 201.357 115.166 210.684 134.138L210.684 134.138Z" fill="#F6F4ED"/>
<path d="M152.384 37.2114C149.603 42.4299 147.069 47.8659 144.846 53.3848C144.798 53.5025 144.751 53.6207 144.704 53.7384C144.549 53.7297 144.392 53.7253 144.234 53.7253C141.663 53.7253 139.366 54.8882 137.849 56.713C136.195 55.9264 134.53 55.1669 132.858 54.4361C129.348 52.9021 125.8 51.4911 122.262 50.2201C130.801 43.4995 141.111 38.8967 152.384 37.2114Z" fill="#F6F4ED"/>
</g>
</svg>
