<svg width="323" height="201" viewBox="0 0 323 201" fill="none" xmlns="http://www.w3.org/2000/svg">
<g opacity="0.5">
<path d="M135.669 102.307C128.663 107.87 124.182 116.447 124.182 126.027V132.749H88.7689C85.5755 132.749 83 130.148 83 126.955V117.065C83 107.613 88.8211 99.5256 97.0623 96.1514C101.261 99.2682 106.463 101.122 112.077 101.122C117.692 101.122 122.895 99.267 127.092 96.1514C130.414 97.5168 133.352 99.6287 135.669 102.307Z" fill="#F6F4ED"/>
<path d="M112.085 93.4082C121.727 93.4082 129.538 85.5954 129.538 75.9547C129.538 66.314 121.727 58.5 112.085 58.5C102.443 58.5 94.6289 66.3128 94.6289 75.9535C94.6289 85.5942 102.444 93.407 112.085 93.407V93.4082Z" fill="#F6F4ED"/>
<path d="M239 117.065V126.955C239 130.148 236.424 132.749 233.23 132.749H197.817V126.027C197.817 116.446 193.336 107.87 186.355 102.307C188.647 99.6287 191.584 97.5168 194.906 96.1514C199.105 99.2682 204.281 101.122 209.921 101.122C215.562 101.122 220.738 99.267 224.936 96.1514C233.178 99.5256 238.999 107.613 238.999 117.065H239Z" fill="#F6F4ED"/>
<path d="M209.922 93.4082C219.564 93.4082 227.376 85.5954 227.376 75.9547C227.376 66.314 219.564 58.5 209.922 58.5C200.281 58.5 192.467 66.3128 192.467 75.9535C192.467 85.5942 200.282 93.407 209.922 93.407V93.4082Z" fill="#F6F4ED"/>
<path d="M190.09 126.029V135.918C190.09 139.111 187.514 141.713 184.321 141.713H137.704C134.511 141.713 131.91 139.111 131.91 135.918V126.029C131.91 116.576 137.731 108.489 145.972 105.115C150.196 108.257 155.398 110.112 161.013 110.112C166.627 110.112 171.831 108.257 176.028 105.115C184.27 108.489 190.09 116.576 190.09 126.029Z" fill="#F6F4ED"/>
<path d="M161.004 102.373C170.646 102.373 178.458 94.56 178.458 84.9193C178.458 75.2786 170.645 67.4658 161.004 67.4658C151.364 67.4658 143.548 75.2786 143.548 84.9193C143.548 94.56 151.364 102.373 161.004 102.373Z" fill="#F6F4ED"/>
</g>
</svg>
