<svg width="323" height="201" viewBox="0 0 323 201" fill="none" xmlns="http://www.w3.org/2000/svg">
<g opacity="0.5">
<path d="M184.51 134.156C183.349 134.156 182.237 133.993 181.175 133.668C180.113 133.328 179.271 132.896 178.647 132.372L179.603 130.227C180.198 130.694 180.934 131.083 181.812 131.395C182.69 131.706 183.59 131.862 184.51 131.862C185.289 131.862 185.919 131.777 186.4 131.607C186.882 131.437 187.236 131.211 187.463 130.928C187.689 130.63 187.802 130.297 187.802 129.929C187.802 129.476 187.64 129.115 187.314 128.846C186.988 128.563 186.563 128.343 186.039 128.188C185.53 128.018 184.956 127.862 184.319 127.72C183.696 127.579 183.066 127.416 182.428 127.232C181.805 127.033 181.232 126.786 180.708 126.488C180.198 126.177 179.78 125.766 179.455 125.256C179.129 124.746 178.966 124.095 178.966 123.302C178.966 122.495 179.179 121.759 179.603 121.093C180.042 120.413 180.701 119.875 181.579 119.479C182.471 119.068 183.597 118.863 184.956 118.863C185.848 118.863 186.733 118.976 187.611 119.203C188.489 119.429 189.254 119.755 189.905 120.18L189.034 122.325C188.369 121.929 187.682 121.638 186.974 121.454C186.266 121.256 185.586 121.157 184.935 121.157C184.17 121.157 183.547 121.249 183.066 121.433C182.598 121.617 182.251 121.858 182.025 122.155C181.812 122.452 181.706 122.792 181.706 123.175C181.706 123.628 181.862 123.996 182.173 124.279C182.499 124.548 182.917 124.761 183.427 124.916C183.951 125.072 184.531 125.228 185.168 125.384C185.806 125.525 186.436 125.688 187.059 125.872C187.696 126.056 188.27 126.297 188.779 126.594C189.303 126.892 189.721 127.295 190.033 127.805C190.358 128.315 190.521 128.959 190.521 129.738C190.521 130.531 190.302 131.267 189.863 131.947C189.438 132.613 188.779 133.151 187.887 133.562C186.995 133.958 185.869 134.156 184.51 134.156ZM194.959 125.256H202.35V127.529H194.959V125.256ZM195.171 131.629H203.561V133.944H192.41V119.075H203.264V121.39H195.171V131.629ZM205.79 133.944V119.075H208.063L217.387 130.524H216.262V119.075H219.002V133.944H216.729L207.404 122.495H208.53V133.944H205.79ZM226.746 134.156C225.584 134.156 224.473 133.993 223.411 133.668C222.349 133.328 221.506 132.896 220.883 132.372L221.839 130.227C222.434 130.694 223.17 131.083 224.048 131.395C224.926 131.706 225.825 131.862 226.746 131.862C227.524 131.862 228.155 131.777 228.636 131.607C229.118 131.437 229.472 131.211 229.698 130.928C229.925 130.63 230.038 130.297 230.038 129.929C230.038 129.476 229.875 129.115 229.549 128.846C229.224 128.563 228.799 128.343 228.275 128.188C227.765 128.018 227.192 127.862 226.554 127.72C225.931 127.579 225.301 127.416 224.664 127.232C224.041 127.033 223.467 126.786 222.943 126.488C222.434 126.177 222.016 125.766 221.69 125.256C221.365 124.746 221.202 124.095 221.202 123.302C221.202 122.495 221.414 121.759 221.839 121.093C222.278 120.413 222.936 119.875 223.814 119.479C224.706 119.068 225.832 118.863 227.192 118.863C228.084 118.863 228.969 118.976 229.847 119.203C230.725 119.429 231.489 119.755 232.141 120.18L231.27 122.325C230.604 121.929 229.918 121.638 229.21 121.454C228.502 121.256 227.822 121.157 227.17 121.157C226.406 121.157 225.783 121.249 225.301 121.433C224.834 121.617 224.487 121.858 224.26 122.155C224.048 122.452 223.942 122.792 223.942 123.175C223.942 123.628 224.098 123.996 224.409 124.279C224.735 124.548 225.153 124.761 225.662 124.916C226.186 125.072 226.767 125.228 227.404 125.384C228.041 125.525 228.671 125.688 229.295 125.872C229.932 126.056 230.505 126.297 231.015 126.594C231.539 126.892 231.957 127.295 232.268 127.805C232.594 128.315 232.757 128.959 232.757 129.738C232.757 130.531 232.537 131.267 232.098 131.947C231.674 132.613 231.015 133.151 230.123 133.562C229.231 133.958 228.105 134.156 226.746 134.156ZM237.194 125.256H244.586V127.529H237.194V125.256ZM237.407 131.629H245.797V133.944H234.645V119.075H245.499V121.39H237.407V131.629Z" fill="#F6F4ED"/>
<path fill-rule="evenodd" clip-rule="evenodd" d="M247 53.4055L245.876 55.9755C243.802 60.7153 240.132 64.5781 235.505 66.8918C232.434 68.4272 229.048 69.2266 225.614 69.2266H152.137C150.369 69.2266 148.62 69.5856 146.995 70.2819C143.246 71.8887 140.463 75.1559 139.474 79.1132L139.431 79.2844L131.188 77.2237L131.231 77.0525C132.865 70.5193 137.458 65.1253 143.648 62.4725C146.33 61.3229 149.218 60.7302 152.137 60.7302H225.614C227.729 60.7302 229.814 60.2379 231.705 59.2924C234.555 57.8676 236.815 55.4888 238.092 52.57L239.216 50L247 53.4055Z" fill="#F6F4ED"/>
<path fill-rule="evenodd" clip-rule="evenodd" d="M83.2696 88.334C79.1637 88.334 75.8352 91.6625 75.8352 95.7683V115.947C75.8352 120.053 79.1637 123.382 83.2696 123.382H105.573V127.306C105.573 131.412 108.901 134.74 113.007 134.74H158.675C162.781 134.74 166.109 131.412 166.109 127.306V115.974C166.109 115.965 166.11 115.956 166.11 115.947V88.334H83.2696Z" fill="#F6F4ED"/>
</g>
</svg>
