<svg width="794" height="234" viewBox="0 0 794 234" fill="none" xmlns="http://www.w3.org/2000/svg">
<path d="M121.496 112.712C122.2 112.712 122.76 112.808 123.176 113C123.624 113.192 123.848 113.432 123.848 113.72C123.848 114.072 123.752 114.472 123.56 114.92C123.4 115.368 123.24 115.736 123.08 116.024C123.016 116.088 122.936 116.104 122.84 116.072C122.744 116.008 122.696 115.912 122.696 115.784C122.792 115.56 122.84 115.24 122.84 114.824C122.84 114.376 122.712 114.008 122.456 113.72C122.232 113.432 121.912 113.288 121.496 113.288C120.952 113.288 120.504 113.464 120.152 113.816C119.832 114.136 119.672 114.6 119.672 115.208C119.672 115.72 119.8 116.216 120.056 116.696C120.344 117.144 120.648 117.608 120.968 118.088C121.32 118.536 121.64 119.032 121.928 119.576C122.216 120.088 122.36 120.68 122.36 121.352C122.36 122.504 121.896 123.4 120.968 124.04C120.04 124.68 118.824 125 117.32 125C116.232 125 115.368 124.824 114.728 124.472C114.12 124.12 113.816 123.736 113.816 123.32C113.816 123.192 113.864 123.016 113.96 122.792C114.056 122.568 114.184 122.328 114.344 122.072C114.504 121.816 114.68 121.56 114.872 121.304C115.064 121.048 115.272 120.84 115.496 120.68C115.592 120.616 115.672 120.632 115.736 120.728C115.832 120.824 115.848 120.92 115.784 121.016C115.592 121.208 115.448 121.416 115.352 121.64C115.256 121.832 115.208 122.104 115.208 122.456C115.208 123.032 115.4 123.512 115.784 123.896C116.168 124.248 116.664 124.424 117.272 124.424C118.104 124.424 118.744 124.2 119.192 123.752C119.672 123.272 119.912 122.696 119.912 122.024C119.912 121.416 119.768 120.856 119.48 120.344C119.224 119.8 118.936 119.288 118.616 118.808C118.296 118.296 117.992 117.784 117.704 117.272C117.448 116.76 117.32 116.216 117.32 115.64C117.32 114.808 117.672 114.12 118.376 113.576C119.08 113 120.12 112.712 121.496 112.712ZM130.619 110.648C130.523 110.744 130.411 110.744 130.283 110.648C130.187 110.552 130.107 110.424 130.043 110.264C129.979 110.072 129.947 109.88 129.947 109.688C129.947 109.464 129.995 109.272 130.091 109.112C130.443 108.664 130.955 108.104 131.627 107.432C132.331 106.728 133.051 106.136 133.787 105.656C133.851 105.624 133.931 105.656 134.027 105.752C134.123 105.816 134.155 105.88 134.123 105.944C133.451 106.552 132.811 107.288 132.203 108.152C131.595 108.984 131.067 109.816 130.619 110.648ZM125.483 116.072C125.387 116.136 125.307 116.12 125.243 116.024C125.179 115.896 125.163 115.784 125.195 115.688C126.379 114.728 128.027 113.736 130.139 112.712C130.395 112.712 130.523 112.856 130.523 113.144C130.107 113.88 129.691 114.68 129.275 115.544C128.891 116.408 128.539 117.272 128.219 118.136C127.931 118.968 127.691 119.784 127.499 120.584C127.307 121.352 127.211 121.992 127.211 122.504C127.211 123.144 127.435 123.464 127.883 123.464C128.235 123.464 128.571 123.32 128.891 123.032C129.243 122.712 129.643 122.312 130.091 121.832C130.155 121.768 130.235 121.784 130.331 121.88C130.427 121.944 130.443 122.056 130.379 122.216C129.675 123.048 128.971 123.72 128.267 124.232C127.595 124.744 126.939 125 126.299 125C125.179 125 124.619 124.472 124.619 123.416C124.619 122.84 124.699 122.168 124.859 121.4C125.051 120.6 125.291 119.8 125.579 119C125.899 118.168 126.235 117.368 126.587 116.6C126.971 115.8 127.355 115.112 127.739 114.536C127.387 114.728 126.987 114.968 126.539 115.256C126.123 115.544 125.771 115.816 125.483 116.072ZM145.068 121.64C145.132 121.576 145.212 121.592 145.308 121.688C145.404 121.752 145.436 121.848 145.404 121.976C144.828 122.776 144.156 123.48 143.388 124.088C142.652 124.696 141.916 125 141.18 125C140.636 125 140.204 124.824 139.884 124.472C139.596 124.12 139.452 123.656 139.452 123.08C139.452 121.96 139.644 120.744 140.028 119.432C140.444 118.12 140.988 116.792 141.66 115.448C141.756 115.224 141.804 114.984 141.804 114.728C141.804 114.408 141.66 114.248 141.372 114.248C140.188 114.248 138.876 115.064 137.436 116.696C135.996 118.296 134.668 120.856 133.452 124.376C133.42 124.472 133.308 124.568 133.116 124.664C132.956 124.728 132.764 124.792 132.54 124.856C132.316 124.888 132.092 124.92 131.868 124.952C131.644 124.984 131.468 125 131.34 125C131.18 125 131.052 124.968 130.956 124.904C130.892 124.84 130.892 124.728 130.956 124.568C131.5 123.192 132.044 121.688 132.588 120.056C133.164 118.392 133.66 116.728 134.076 115.064C134.172 114.744 134.188 114.52 134.124 114.392C134.06 114.232 133.948 114.152 133.788 114.152C133.436 114.152 133.1 114.312 132.78 114.632C132.46 114.92 132.172 115.24 131.916 115.592C131.82 115.656 131.724 115.64 131.628 115.544C131.564 115.448 131.548 115.352 131.58 115.256C131.74 115.032 131.948 114.776 132.204 114.488C132.492 114.2 132.812 113.928 133.164 113.672C133.516 113.384 133.884 113.16 134.268 113C134.652 112.808 135.036 112.712 135.42 112.712C135.964 112.712 136.316 112.888 136.476 113.24C136.668 113.56 136.716 113.96 136.62 114.44C136.46 115.144 136.284 115.816 136.092 116.456C135.932 117.064 135.724 117.752 135.468 118.52C135.852 117.816 136.316 117.128 136.86 116.456C137.436 115.752 138.06 115.128 138.732 114.584C139.436 114.008 140.188 113.56 140.988 113.24C141.788 112.888 142.636 112.712 143.532 112.712C143.916 112.712 144.204 112.808 144.396 113C144.62 113.192 144.732 113.416 144.732 113.672C144.732 114.12 144.62 114.52 144.396 114.872C143.724 116.088 143.148 117.352 142.668 118.664C142.22 119.944 141.996 121.096 141.996 122.12C141.996 122.952 142.268 123.368 142.812 123.368C143.164 123.368 143.516 123.224 143.868 122.936C144.22 122.648 144.62 122.216 145.068 121.64ZM154.008 117.032C153.816 117.096 153.72 117.016 153.72 116.792C153.944 116.12 153.896 115.528 153.576 115.016C153.288 114.504 152.744 114.248 151.944 114.248C150.92 114.248 150.088 114.888 149.448 116.168C148.84 117.448 148.536 119.112 148.536 121.16C148.536 122.664 149.128 123.416 150.312 123.416C150.856 123.416 151.448 123.224 152.088 122.84C152.76 122.424 153.368 121.896 153.912 121.256C154.04 121.192 154.152 121.208 154.248 121.304C154.344 121.4 154.36 121.512 154.296 121.64C153.496 122.664 152.6 123.48 151.608 124.088C150.616 124.696 149.56 125 148.44 125C147.736 125 147.144 124.76 146.664 124.28C146.184 123.768 145.944 123.064 145.944 122.168C145.944 121.048 146.168 119.928 146.616 118.808C147.096 117.656 147.704 116.632 148.44 115.736C149.176 114.84 149.976 114.12 150.84 113.576C151.704 113 152.552 112.712 153.384 112.712C154.12 112.712 154.696 112.92 155.112 113.336C155.528 113.752 155.736 114.216 155.736 114.728C155.736 114.92 155.672 115.128 155.544 115.352C155.448 115.576 155.304 115.8 155.112 116.024C154.952 116.248 154.76 116.456 154.536 116.648C154.344 116.84 154.168 116.968 154.008 117.032ZM165.889 115.112C165.889 116.936 163.473 118.184 158.641 118.856C158.609 119.176 158.577 119.496 158.545 119.816C158.545 120.136 158.545 120.472 158.545 120.824C158.545 121.656 158.737 122.296 159.121 122.744C159.505 123.192 160.113 123.416 160.945 123.416C161.553 123.416 162.177 123.24 162.817 122.888C163.457 122.536 163.969 122.088 164.353 121.544C164.481 121.48 164.577 121.512 164.641 121.64C164.705 121.736 164.721 121.848 164.689 121.976C164.049 122.808 163.233 123.528 162.241 124.136C161.281 124.712 160.241 125 159.121 125C158.001 125 157.185 124.728 156.673 124.184C156.193 123.608 155.953 122.808 155.953 121.784C155.953 120.792 156.161 119.768 156.577 118.712C156.993 117.624 157.521 116.632 158.161 115.736C158.833 114.84 159.585 114.12 160.417 113.576C161.281 113 162.145 112.712 163.009 112.712C163.873 112.712 164.561 112.968 165.073 113.48C165.617 113.96 165.889 114.504 165.889 115.112ZM161.713 113.96C160.977 113.96 160.337 114.312 159.793 115.016C159.281 115.688 158.929 116.744 158.737 118.184C160.273 118.024 161.409 117.736 162.145 117.32C162.881 116.872 163.249 116.328 163.249 115.688C163.249 115.208 163.105 114.808 162.817 114.488C162.529 114.136 162.161 113.96 161.713 113.96Z" fill="#F6F4ED"/>
<path fill-rule="evenodd" clip-rule="evenodd" d="M374.022 27.5078C374.022 47.3134 359.337 63.2068 329.966 75.188C335.106 80.8119 339.756 86.9247 343.917 93.5266C348.078 99.8839 350.158 108.075 350.158 118.1C350.158 125.191 348.323 132.16 344.651 139.006C341.225 145.853 336.329 151.965 329.966 157.345C323.847 162.48 316.626 166.636 308.305 169.815C300.227 172.994 291.416 174.583 281.871 174.583C268.654 174.583 258.496 171.527 251.398 165.414C244.545 159.056 241.118 150.621 241.118 140.106C241.118 126.903 246.381 114.677 256.905 103.429C267.43 92.1817 283.094 83.5015 303.899 77.3887C299.248 72.0094 295.088 66.5078 291.416 60.884C287.99 55.0156 286.276 47.9247 286.276 39.6112C286.276 34.9655 287.5 30.3197 289.948 25.674C292.395 20.7837 295.822 16.5047 300.228 12.837C304.878 8.92476 310.507 5.86833 317.116 3.66771C323.724 1.22257 331.189 0 339.511 0C349.791 0 358.113 2.68965 364.477 8.06896C370.84 13.4483 374.022 19.9279 374.022 27.5078ZM295.822 164.313C306.346 164.313 314.668 161.257 320.787 155.144C327.151 149.031 330.333 140.473 330.333 129.47C330.333 118.222 328.008 109.053 323.357 101.962C318.952 94.8714 313.934 88.2695 308.305 82.1567C291.171 87.047 279.178 93.7711 272.325 102.329C265.472 110.643 262.045 120.301 262.045 131.304C262.045 141.329 264.86 149.398 270.489 155.511C276.119 161.379 284.563 164.313 295.822 164.313ZM325.927 71.1536C345.508 62.8401 355.298 50.7366 355.298 34.8432C355.298 26.5298 352.851 20.1724 347.955 15.7711C343.305 11.1254 337.064 8.8025 329.231 8.8025C322.133 8.8025 316.382 10.8809 311.976 15.0376C307.815 19.1943 305.735 24.5736 305.735 31.1755C305.735 40.2225 307.693 47.8025 311.609 53.9153C315.77 59.7837 320.542 65.5297 325.927 71.1536ZM445.958 75.188C475.329 63.2068 490.015 47.3134 490.015 27.5078C490.015 19.9279 486.833 13.4483 480.469 8.06896C474.106 2.68965 465.784 0 455.504 0C447.182 0 439.717 1.22257 433.109 3.66771C426.5 5.86833 420.871 8.92476 416.22 12.837C411.815 16.5047 408.388 20.7837 405.94 25.674C403.493 30.3197 402.269 34.9655 402.269 39.6112C402.269 47.9247 403.982 55.0156 407.409 60.884C411.08 66.5078 415.241 72.0094 419.892 77.3887C399.087 83.5015 383.423 92.1817 372.898 103.429C362.373 114.677 357.111 126.903 357.111 140.106C357.111 150.621 360.538 159.056 367.391 165.414C374.489 171.527 384.646 174.583 397.863 174.583C407.409 174.583 416.22 172.994 424.297 169.815C432.619 166.636 439.839 162.48 445.958 157.345C452.322 151.965 457.217 145.853 460.644 139.006C464.315 132.16 466.151 125.191 466.151 118.1C466.151 108.075 464.071 99.8839 459.91 93.5266C455.749 86.9247 451.098 80.8119 445.958 75.188ZM436.78 155.144C430.661 161.257 422.339 164.313 411.815 164.313C400.556 164.313 392.112 161.379 386.482 155.511C380.853 149.398 378.038 141.329 378.038 131.304C378.038 120.301 381.465 110.643 388.318 102.329C395.171 93.7711 407.164 87.047 424.297 82.1567C429.927 88.2695 434.944 94.8714 439.35 101.962C444 109.053 446.326 118.222 446.326 129.47C446.326 140.473 443.144 149.031 436.78 155.144ZM471.291 34.8432C471.291 50.7366 461.501 62.8401 441.92 71.1536C436.535 65.5297 431.762 59.7837 427.602 53.9153C423.685 47.8025 421.727 40.2225 421.727 31.1755C421.727 24.5736 423.808 19.1943 427.969 15.0376C432.374 10.8809 438.126 8.8025 445.224 8.8025C453.056 8.8025 459.298 11.1254 463.948 15.7711C468.843 20.1724 471.291 26.5298 471.291 34.8432ZM549.835 67.486C544.695 62.3512 536.986 59.7838 526.706 59.7838C516.181 59.7838 507.492 61.9845 500.639 66.3857C493.786 70.787 489.013 75.555 486.321 80.6898C485.831 81.9123 486.198 82.8904 487.422 83.6239C488.646 84.3575 489.502 84.3575 489.992 83.6239C492.929 78.7337 496.6 74.9437 501.006 72.254C505.657 69.5644 511.164 68.2196 517.527 68.2196C524.381 68.2196 529.521 70.5424 532.947 75.1882C536.374 79.5895 538.087 84.7243 538.087 90.5926C538.087 95.9719 536.986 100.618 534.783 104.53C532.825 108.198 529.398 111.743 524.503 115.166C519.852 118.589 513.611 122.013 505.779 125.436C498.191 128.859 488.768 132.893 477.509 137.539C476.53 138.762 476.285 139.984 476.775 141.207C477.509 142.185 478.488 142.674 479.712 142.674C484.362 139.495 489.502 137.906 495.132 137.906C505.656 137.906 513.611 141.207 518.996 147.809C524.625 154.166 527.44 163.458 527.44 175.683C527.44 191.577 522.667 203.68 513.122 211.994C503.576 220.552 491.461 224.831 476.775 224.831C466.495 224.831 458.54 223.119 452.911 219.696C447.037 216.517 443.243 212.605 441.53 207.959C441.04 207.226 440.306 206.981 439.327 207.226C438.348 207.715 437.736 208.326 437.491 209.06C437.491 216.639 439.327 222.63 442.998 227.031C446.67 231.677 452.422 234 460.254 234C471.757 234 482.772 232.166 493.296 228.498C504.066 225.075 513.489 220.185 521.566 213.828C529.643 207.47 536.129 200.013 541.024 191.455C545.919 182.897 548.367 173.605 548.367 163.58C548.367 157.712 547.388 152.455 545.43 147.809C543.472 142.919 540.779 138.884 537.353 135.705C534.171 132.527 530.255 130.204 525.604 128.737C521.199 127.27 516.426 127.025 511.286 128.003C526.706 121.89 538.332 115.655 546.164 109.298C553.996 102.941 557.912 94.8716 557.912 85.091C557.912 78.4891 555.22 72.6208 549.835 67.486ZM173.895 173.483C173.405 175.683 174.751 176.784 177.933 176.784C182.094 176.784 186.132 176.05 190.049 174.583C194.21 173.36 196.902 171.771 198.126 169.815C200.328 161.257 203.021 152.088 206.203 142.307C209.629 132.282 213.545 122.379 217.951 112.599C222.602 102.574 227.619 92.793 233.004 83.257C238.388 73.7209 244.14 64.9184 250.259 56.8495C250.259 55.6269 249.77 54.7711 248.791 54.2821C248.056 53.7931 247.077 53.7931 245.854 54.2821C242.182 57.2163 237.899 60.1504 233.004 63.0846C228.109 65.7742 222.969 68.2194 217.584 70.42C215.616 71.2627 213.63 72.0515 211.626 72.7866C157.308 86.9032 58.3826 104.66 9.917 86.4306C5.20405 84.6579 -1.47803 90.1285 0.29101 94.8425C0.875145 96.3991 2.19388 97.5558 3.82641 97.8712C34.9593 103.886 116.02 107.678 215.454 78.7549C212.356 85.42 209.027 92.5445 205.468 100.128C201.797 107.953 198.003 116.022 194.087 124.335C190.416 132.649 186.867 140.962 183.44 149.276C180.014 157.589 176.832 165.658 173.895 173.483ZM571.974 117.909C617.031 102.491 735.194 81.2391 783.459 98.1503C787.878 99.6984 795.126 94.3896 793.852 89.8849C793.408 88.3148 792.159 87.0995 790.553 86.8072C762.182 81.6418 652.886 81.1819 570.314 113.396C569.422 113.745 568.834 114.595 568.81 115.553C568.769 117.236 570.381 118.454 571.974 117.909Z" fill="#F6F4ED"/>
</svg>
