<svg width="590" height="106" viewBox="0 0 590 106" fill="none" xmlns="http://www.w3.org/2000/svg">
<g clip-path="url(#clip0_94_9)">
<path d="M157.865 95.34H146.975V91.5807H158.406V93.5798L161.988 92.7347C161.988 91.0853 161.685 89.9779 161.073 89.4009C160.462 88.8239 159.326 88.5383 157.655 88.5383H147.75C146.102 88.5383 144.972 88.8181 144.349 89.3834C143.726 89.9488 143.418 91.0445 143.418 92.6648V94.594C143.418 96.2201 143.726 97.3158 144.349 97.8753C144.972 98.4348 146.102 98.7204 147.75 98.7204H158.639V102.713H146.3V100.65L142.719 101.396C142.719 103.202 142.998 104.421 143.563 105.05C144.128 105.685 145.298 106 147.08 106H157.865C159.513 106 160.648 105.714 161.277 105.155C161.906 104.59 162.226 103.494 162.226 101.868V99.4665C162.226 97.8404 161.912 96.7505 161.277 96.1851C160.648 95.6198 159.507 95.34 157.865 95.34Z" fill="#AC9571"/>
<path d="M173.861 98.3824H181.909V95.4041H173.861V91.5166H187.656V88.5383H169.802V106H187.825V102.719H173.861V98.3824Z" fill="#AC9571"/>
<path d="M211.327 97.7063C211.327 98.091 211.385 99.0934 211.496 100.72C211.048 100.201 210.378 99.5714 209.499 98.8253L197.223 88.5383H194.446V106.006H198.097V96.459C198.097 95.8063 198.039 94.9145 197.928 93.7838C198.359 94.2792 198.842 94.7572 199.384 95.206L212.201 106.006H214.972V88.5383H211.321V97.7121L211.327 97.7063Z" fill="#AC9571"/>
<path d="M237.601 95.34H226.712V91.5807H238.143V93.5798L241.724 92.7347C241.724 91.0853 241.421 89.9779 240.81 89.4009C240.198 88.8239 239.063 88.5383 237.391 88.5383H227.486C225.838 88.5383 224.709 88.8181 224.086 89.3834C223.462 89.9488 223.154 91.0445 223.154 92.6648V94.594C223.154 96.2201 223.462 97.3158 224.086 97.8753C224.709 98.4348 225.838 98.7204 227.486 98.7204H238.376V102.713H226.036V100.65L222.455 101.396C222.455 103.202 222.735 104.421 223.299 105.05C223.864 105.685 225.035 106 226.817 106H237.601C239.249 106 240.385 105.714 241.013 105.155C241.642 104.59 241.963 103.494 241.963 101.868V99.4665C241.963 97.8404 241.648 96.7505 241.013 96.1851C240.385 95.6198 239.243 95.34 237.601 95.34Z" fill="#AC9571"/>
<path d="M253.597 98.3824H261.645V95.4041H253.597V91.5166H267.392V88.5383H249.539V106H267.561V102.719H253.597V98.3824Z" fill="#AC9571"/>
<path d="M303.537 102.719H290.143V91.6507H303.537V102.719ZM303.269 88.5383H290.417C288.775 88.5383 287.64 88.8181 287.022 89.3834C286.405 89.9488 286.091 91.0445 286.091 92.6648V101.874C286.091 103.5 286.399 104.595 287.022 105.155C287.645 105.72 288.775 106 290.417 106H303.269C304.917 106 306.047 105.72 306.664 105.155C307.287 104.59 307.595 103.494 307.595 101.874V92.6648C307.595 91.0387 307.287 89.9488 306.664 89.3834C306.047 88.8181 304.911 88.5383 303.269 88.5383Z" fill="#AC9571"/>
<path d="M315.305 106H319.364V99.3674H326.701V96.1851H319.364V91.5807H332.955V88.5383H315.305V106Z" fill="#AC9571"/>
<path d="M353.447 88.5383H349.388V106H353.447V88.5383Z" fill="#AC9571"/>
<path d="M357.576 91.6507H365.588V106H369.647V91.6507H377.695V88.5383H357.576V91.6507Z" fill="#AC9571"/>
<path d="M386.284 99.0293L390.174 91.9188L393.929 99.0293H386.289H386.284ZM388.345 88.5383L378.469 106H382.528L384.554 102.177H395.612L397.709 106H402.274L392.264 88.5383H388.339H388.345Z" fill="#AC9571"/>
<path d="M411.102 88.5383H407.043V106H424.192V102.719H411.102V88.5383Z" fill="#AC9571"/>
<path d="M436.497 95.2351L430.511 88.5383H425.101L434.167 98.1842V106H438.255V98.0793L447.281 88.5383H442.518L436.497 95.2351Z" fill="#AC9571"/>
<path d="M13.9689 10.1705H44.7851C49.0068 10.1705 50.9459 10.9689 50.9459 14.8564V21.1394C50.9459 25.0211 49.0068 25.8195 44.7851 25.8195H13.9689V10.1705ZM13.9689 35.99H50.9459C59.966 35.99 64.1878 32.7961 64.1878 24.5664V11.4294C64.1936 3.19976 59.966 0 50.9459 0H0.5V58.9536H13.9689V35.99Z" fill="#AC9571"/>
<path d="M87.2649 35.4188L100.39 11.4235L113.056 35.4188H87.2591H87.2649ZM94.2236 0L60.8977 58.9536H74.5938L81.4418 46.0439H118.768L125.843 58.9536H141.251L107.465 0H94.2236Z" fill="#AC9571"/>
<path d="M200.519 22.9637H163.764V10.287H202.342V17.0246L214.437 14.1687V12.9156C214.442 2.74515 210.331 0 199.832 0H166.39C155.32 0 151.78 2.85589 151.78 13.9414V20.4516C151.78 31.5313 155.32 34.3872 166.39 34.3872H203.146V47.8681H161.481V40.8975L149.386 43.4095V45.0123C149.386 56.0919 153.037 58.9478 164.113 58.9478H200.525C211.595 58.9478 215.252 56.0919 215.252 45.0123V36.8992C215.252 25.8137 211.601 22.9578 200.525 22.9578" fill="#AC9571"/>
<path d="M299.816 45.0181V38.0474L286.12 35.1915V47.874H249.143V10.5085H286.12V21.7047L299.816 19.5366V13.9414C299.816 2.85589 296.281 0 285.206 0H250.051C238.976 0 235.441 2.85589 235.441 13.9414V45.0123C235.441 56.0919 238.976 58.9478 250.051 58.9478H285.206C296.275 58.9478 299.816 56.0919 299.816 45.0123" fill="#AC9571"/>
<path d="M388.042 45.0181V0H374.346V47.874H335.308V0H321.618V45.0123C321.618 56.0919 325.152 58.9478 336.228 58.9478H373.432C384.502 58.9478 388.042 56.0919 388.042 45.0123" fill="#AC9571"/>
<path d="M472.088 45.0181V38.0474L458.392 35.1915V47.874H421.415V10.5085H458.392V21.7047L472.088 19.5366V13.9414C472.088 2.85589 468.547 0 457.478 0H422.323C411.248 0 407.713 2.85589 407.713 13.9414V45.0123C407.713 56.0919 411.248 58.9478 422.323 58.9478H457.478C468.547 58.9478 472.088 56.0919 472.088 45.0123" fill="#AC9571"/>
<path d="M506.369 58.9536H541.523C552.599 58.9536 556.133 56.0978 556.133 45.0181V38.0474L542.437 35.1915V47.874H505.46V10.5085H542.437V21.7047L556.133 19.5366V13.9414C556.133 2.85589 552.599 0 541.523 0H506.369C495.299 0 491.758 2.85589 491.758 13.9414V45.0123C491.758 56.0919 495.299 58.9478 506.369 58.9478" fill="#AC9571"/>
<path d="M589.5 0H575.804V58.9536H589.5V0Z" fill="#AC9571"/>
<path d="M124.289 96.1619H0.5V99.5948H124.289V96.1619Z" fill="#AC9571"/>
<path d="M589.5 96.1619H466.067V99.5948H589.5V96.1619Z" fill="#AC9571"/>
</g>
<defs>
<clipPath id="clip0_94_9">
<rect width="589" height="106" fill="white" transform="translate(0.5)"/>
</clipPath>
</defs>
</svg>
