<?xml version="1.0" encoding="UTF-8"?>
<svg id="Layer_2" data-name="Layer 2" xmlns="http://www.w3.org/2000/svg" viewBox="0 0 589 58.95">
  <defs>
    <style>
      .cls-1 {
        fill: #ac9571;
      }
    </style>
  </defs>
  <g id="Layer_1-2" data-name="Layer 1">
    <g>
      <path class="cls-1" d="M13.47,10.17h30.82c4.22,0,6.16.8,6.16,4.69v6.28c0,3.88-1.94,4.68-6.16,4.68H13.47v-15.65ZM13.47,35.99h36.98c9.02,0,13.24-3.19,13.24-11.42v-13.14c0-8.23-4.22-11.43-13.24-11.43H0v58.95h13.47v-22.96Z"/>
      <path class="cls-1" d="M86.76,35.42l13.13-24,12.67,24h-25.8,0ZM93.72,0l-33.33,58.95h13.7l6.85-12.91h37.33l7.08,12.91h15.41L106.96,0h-13.24Z"/>
      <path class="cls-1" d="M200.02,22.96h-36.75v-12.68h38.58v6.74l12.1-2.86v-1.25c0-10.17-4.11-12.92-14.6-12.92h-33.44c-11.07,0-14.61,2.86-14.61,13.94v6.51c0,11.08,3.54,13.94,14.61,13.94h36.76v13.48h-41.66v-6.97l-12.1,2.51v1.6c0,11.08,3.65,13.94,14.73,13.94h36.41c11.07,0,14.73-2.86,14.73-13.94v-8.11c0-11.09-3.65-13.94-14.73-13.94"/>
      <path class="cls-1" d="M299.32,45.02v-6.97l-13.7-2.86v12.68h-36.98V10.51h36.98v11.2l13.7-2.17v-5.6c0-11.09-3.54-13.94-14.61-13.94h-35.15c-11.07,0-14.61,2.86-14.61,13.94v31.07c0,11.08,3.54,13.94,14.61,13.94h35.15c11.07,0,14.61-2.86,14.61-13.94"/>
      <path class="cls-1" d="M387.54,45.02V0h-13.7v47.87h-39.04V0h-13.69v45.01c0,11.08,3.53,13.94,14.61,13.94h37.2c11.07,0,14.61-2.86,14.61-13.94"/>
      <path class="cls-1" d="M471.59,45.02v-6.97l-13.7-2.86v12.68h-36.98V10.51h36.98v11.2l13.7-2.17v-5.6c0-11.09-3.54-13.94-14.61-13.94h-35.15c-11.08,0-14.61,2.86-14.61,13.94v31.07c0,11.08,3.53,13.94,14.61,13.94h35.15c11.07,0,14.61-2.86,14.61-13.94"/>
      <path class="cls-1" d="M505.87,58.95h35.15c11.08,0,14.61-2.86,14.61-13.94v-6.97l-13.7-2.86v12.68h-36.98V10.51h36.98v11.2l13.7-2.17v-5.6c0-11.09-3.53-13.94-14.61-13.94h-35.15c-11.07,0-14.61,2.86-14.61,13.94v31.07c0,11.08,3.54,13.94,14.61,13.94"/>
      <path class="cls-1" d="M589,0h-13.7v58.95h13.7V0Z"/>
    </g>
  </g>
</svg>