<?xml version="1.0" encoding="UTF-8"?>
<svg id="Layer_1" xmlns="http://www.w3.org/2000/svg" version="1.1" viewBox="0 0 989.1 989.1">
  <!-- Generator: Adobe Illustrator 29.4.0, SVG Export Plug-In . SVG Version: 2.1.0 Build 152)  -->
  <defs>
    <style>
      .st0 {
        fill: #currentColor;
      }
    </style>
  </defs>
  <path class="st0" d="M140.5,397.4h58.5v-41.6h-58.4c-3.2,0-5.7,2.6-5.7,5.7v30.3c0,3.1,2.6,5.6,5.6,5.6Z"/>
  <path class="st0" d="M780.5,487h0v-40.9c0-8.5-6.9-15.5-15.5-15.5h-154c-8.5,0-15.5,6.9-15.5,15.5v56.4h169.6c8.5,0,15.5-6.9,15.5-15.5Z"/>
  <path class="st0" d="M494.5,0C221.4,0,0,221.4,0,494.5s221.4,494.5,494.5,494.5,494.5-221.4,494.5-494.5S767.7,0,494.5,0ZM354.9,206l283.5-.3c20.6,0,37.4-16.8,37.4-37.4h28.3c0,36.3-29.5,65.8-65.8,65.8l-283.5.3c-20.6,0-37.4,16.8-37.4,37.4h-28.3c0-36.3,29.5-65.8,65.8-65.8ZM90.6,341.4c0-15.7,12.7-28.4,28.4-28.4h296.9v136.3c0,15.7-12.7,28.4-28.4,28.4h-160.1c-15.7,0-28.4-12.7-28.4-28.4v-8.9h-80.1c-15.6,0-28.3-12.8-28.3-28.4v-70.6ZM646.7,711.8h-5.2v14.7h-5v-14.7h-5.2v-4.5h15.4v4.5ZM667.2,726.5h-4.7v-10c-1.2,3.6-3.3,10-3.3,10h-3.8s-2.1-6.4-3.3-9.9v9.9h-4.7v-19.2h6.4s2.9,8.8,3.7,11.2c.8-2.5,3.5-11.2,3.5-11.2h6.2v19.2ZM832.3,624.8h-236.9v134.7h-123.7v-134.6H89.5v-122.4h382.2v-120.7c0-39.3,31.9-71.2,71.2-71.2h289.4c39.3,0,71.2,31.9,71.2,71.1v171.9c0,39.3-31.9,71.2-71.2,71.2Z"/>
  <path class="st0" d="M111.3,607h25.7v-33.5h40.3c8.7,0,15.8-7.1,15.8-15.8v-22.3c0-8.8-7.1-15.8-15.8-15.8h0s-65.9,0-65.9,0v33.7h-22v20.2h21.9v33.5ZM137,539.9h25.5c2.8,0,5.1,2.3,5.1,5.1v3.2h.1c0,2.8-2.3,5.1-5.1,5.1h-25.6v-13.4Z"/>
  <path class="st0" d="M222.2,519.6l-37.5,87.4h24.7l5.4-12.7h38.9l5.4,12.7h24.7l-37.4-87.4h-24.2ZM223.8,573.5l10.5-24.5,10.5,24.5h-21Z"/>
  <path class="st0" d="M292.8,535.3v22.4c0,8.7,7.1,15.8,15.8,15.8h36.4c2.2,0,4,1.8,4,4v3.6c0,2.2-1.8,4-4,4h-52.2v21.9h69c8.7,0,15.8-7.1,15.8-15.8v-21.6c0-8.7-7.1-15.8-15.8-15.8h-37c-2.2,0-4-1.8-4-4v-4.4c0-2.2,1.8-4,4-4h52.8v-21.9h-69c-8.7,0-15.8,7.1-15.8,15.8Z"/>
  <path class="st0" d="M458,519.6h-53.5c-8.7,0-15.8,7.1-15.8,15.8v55.8c0,8.7,7.1,15.8,15.8,15.8h53.5c8.7,0,15.8-7.1,15.8-15.8v-12.2h-25.8c0,2.8-2.3,5.1-5.1,5.1h-23.5c-2.8,0-5.1-2.3-5.1-5.1v-31.4c0-2.8,2.3-5.1,5.1-5.1h23.5c2.8,0,5.1,2.3,5.1,5.1h25.8v-12.2c0-8.7-7.1-15.8-15.8-15.8Z"/>
  <path class="st0" d="M539.3,579.3c0,2.8-2.3,5.1-5.1,5.1h-21.2c-2.8,0-5.1-2.3-5.1-5.1v-59.8h-25.3v71.7c0,8.7,7.1,15.8,15.8,15.8h50.4c8.7,0,15.8-7.1,15.8-15.8v-71.7h-25.3v59.8Z"/>
  <path class="st0" d="M642.6,519.6h-53.5c-8.7,0-15.8,7.1-15.8,15.8v55.8c0,8.7,7.1,15.8,15.8,15.8h53.5c8.7,0,15.8-7.1,15.8-15.8v-12.2h-25.8c0,2.8-2.3,5.1-5.1,5.1h-23.5c-2.8,0-5.1-2.3-5.1-5.1v-31.4c0-2.8,2.3-5.1,5.1-5.1h23.5c2.8,0,5.1,2.3,5.1,5.1h25.8v-12.2c0-8.7-7.1-15.8-15.8-15.8Z"/>
  <path class="st0" d="M737.1,519.6h-53.5c-8.7,0-15.8,7.1-15.8,15.8v55.8c0,8.7,7.1,15.8,15.8,15.8h53.5c8.7,0,15.8-7.1,15.8-15.8v-12.2h-25.8c0,2.8-2.3,5.1-5.1,5.1h-23.5c-2.8,0-5.1-2.3-5.1-5.1v-31.4c0-2.8,2.3-5.1,5.1-5.1h23.5c2.8,0,5.1,2.3,5.1,5.1h25.8v-12.2c0-8.7-7.1-15.8-15.8-15.8Z"/>
  <rect class="st0" x="760" y="519.6" width="25.9" height="87.5"/>
</svg>